<?xml version="1.0" encoding="UTF-8"?>
<svg height="16px" viewBox="0 0 16 16" width="16px" xmlns="http://www.w3.org/2000/svg">
    <path d="m 2.214844 0 c -1.230469 0.0234375 -2.214844 1.027344 -2.214844 2.257812 v 1.886719 c 0.316406 -0.089843 0.648438 -0.144531 1 -0.144531 c 1.941406 0 3.375 1.492188 4.875 2.730469 c 1.496094 1.234375 2.976562 2.269531 4.125 2.269531 c 1.042969 0 3.019531 -1.085938 4.5625 -2.289062 c 0.074219 -0.058594 0.144531 -0.113282 0.21875 -0.171876 c -0.066406 -0.046874 -0.132812 -0.089843 -0.203125 -0.132812 l -11.242187 -6.132812 c -0.34375 -0.1835942 -0.730469 -0.2812505 -1.121094 -0.273438 z m -1.214844 6 c -0.269531 0 -0.621094 0.160156 -1 0.421875 v 6.933594 c 0 0.914062 0.476562 1.761719 1.261719 2.230469 c 0.78125 0.472656 1.753906 0.5 2.5625 0.074218 l 10.726562 -5.660156 c 0.597657 -0.316406 1 -0.910156 1.074219 -1.582031 c -1.636719 1.261719 -3.59375 2.582031 -5.625 2.582031 c -2.15625 0 -3.875 -1.464844 -5.402344 -2.730469 c -1.527344 -1.261719 -2.9375 -2.269531 -3.597656 -2.269531 z m 0 0" fill="#241f31"/>
</svg>
