<?xml version="1.0" encoding="UTF-8"?>
<svg height="128px" viewBox="0 0 128 128" width="128px" xmlns="http://www.w3.org/2000/svg" xmlns:xlink="http://www.w3.org/1999/xlink">
    <filter id="a" height="100%" width="100%" x="0%" y="0%">
        <feColorMatrix color-interpolation-filters="sRGB" values="0 0 0 0 1 0 0 0 0 1 0 0 0 0 1 0 0 0 1 0"/>
    </filter>
    <linearGradient id="b" gradientUnits="userSpaceOnUse" x1="20.155499" x2="120.95742" y1="112.547684" y2="112.547684">
        <stop offset="0" stop-color="#0d3a6e"/>
        <stop offset="0.104009" stop-color="#3584e4"/>
        <stop offset="0.230297" stop-color="#0e315a"/>
        <stop offset="0.85841" stop-color="#174f96"/>
        <stop offset="0.935102" stop-color="#4676ab"/>
        <stop offset="1" stop-color="#050f1d"/>
    </linearGradient>
    <clipPath id="c">
        <path d="m 20 9 h 100 v 106 h -100 z m 0 0"/>
    </clipPath>
    <clipPath id="d">
        <path d="m 20 24 v 76 c 0 5.074219 2.65625 9.78125 7 12.402344 c 4.34375 2.625 9.746094 2.785156 14.238281 0.417968 l 71.523438 -37.640624 c 4.230469 -2.230469 6.90625 -6.589844 6.96875 -11.371094 c 0.066406 -4.78125 -2.488281 -9.214844 -6.660157 -11.558594 l -72.144531 -40.5 c -4.347656 -2.445312 -9.667969 -2.394531 -13.972656 0.125 c -4.308594 2.519531 -6.953125 7.136719 -6.953125 12.125 z m 0 0"/>
    </clipPath>
    <clipPath id="e">
        <path d="m 20 40 h 100 v 48 h -100 z m 0 0"/>
    </clipPath>
    <clipPath id="f">
        <path d="m 20 24 v 76 c 0 5.074219 2.65625 9.78125 7 12.402344 c 4.34375 2.625 9.746094 2.785156 14.238281 0.417968 l 71.523438 -37.640624 c 4.230469 -2.230469 6.90625 -6.589844 6.96875 -11.371094 c 0.066406 -4.78125 -2.488281 -9.214844 -6.660157 -11.558594 l -72.144531 -40.5 c -4.347656 -2.445312 -9.667969 -2.394531 -13.972656 0.125 c -4.308594 2.519531 -6.953125 7.136719 -6.953125 12.125 z m 0 0"/>
    </clipPath>
    <radialGradient id="g" cx="101.245537" cy="193.876114" gradientTransform="matrix(0.608696 -0.173913 0.0716663 0.250832 20.477898 16.977509)" gradientUnits="userSpaceOnUse" r="92">
        <stop offset="0" stop-color="#89b2ea"/>
        <stop offset="1" stop-color="#62a0ea"/>
    </radialGradient>
    <clipPath id="h">
        <path d="m 20 56 h 92 v 48 h -92 z m 0 0"/>
    </clipPath>
    <clipPath id="i">
        <path d="m 20 24 v 76 c 0 5.074219 2.65625 9.78125 7 12.402344 c 4.34375 2.625 9.746094 2.785156 14.238281 0.417968 l 71.523438 -37.640624 c 4.230469 -2.230469 6.90625 -6.589844 6.96875 -11.371094 c 0.066406 -4.78125 -2.488281 -9.214844 -6.660157 -11.558594 l -72.144531 -40.5 c -4.347656 -2.445312 -9.667969 -2.394531 -13.972656 0.125 c -4.308594 2.519531 -6.953125 7.136719 -6.953125 12.125 z m 0 0"/>
    </clipPath>
    <radialGradient id="j" cx="-12.594324" cy="246.541183" gradientTransform="matrix(0.518664 0.103733 -0.0869565 0.434783 59.970592 -33.885376)" gradientUnits="userSpaceOnUse" r="92">
        <stop offset="0" stop-color="#689bd8"/>
        <stop offset="1" stop-color="#1c71d8"/>
    </radialGradient>
    <clipPath id="k">
        <path d="m 20 64 h 100 v 48 h -100 z m 0 0"/>
    </clipPath>
    <clipPath id="l">
        <path d="m 20 24 v 76 c 0 5.074219 2.65625 9.78125 7 12.402344 c 4.34375 2.625 9.746094 2.785156 14.238281 0.417968 l 71.523438 -37.640624 c 4.230469 -2.230469 6.90625 -6.589844 6.96875 -11.371094 c 0.066406 -4.78125 -2.488281 -9.214844 -6.660157 -11.558594 l -72.144531 -40.5 c -4.347656 -2.445312 -9.667969 -2.394531 -13.972656 0.125 c -4.308594 2.519531 -6.953125 7.136719 -6.953125 12.125 z m 0 0"/>
    </clipPath>
    <radialGradient id="m" cx="86.000267" cy="198.666672" gradientTransform="matrix(0.00000002 0.347826 -0.26087 0.00000001 147.82608 42.086853)" gradientUnits="userSpaceOnUse" r="92">
        <stop offset="0" stop-color="#3d8ff0"/>
        <stop offset="1" stop-color="#1c71d8"/>
    </radialGradient>
    <clipPath id="n">
        <path d="m 20 80 h 100 v 35 h -100 z m 0 0"/>
    </clipPath>
    <clipPath id="o">
        <path d="m 20 24 v 76 c 0 5.074219 2.65625 9.78125 7 12.402344 c 4.34375 2.625 9.746094 2.785156 14.238281 0.417968 l 71.523438 -37.640624 c 4.230469 -2.230469 6.90625 -6.589844 6.96875 -11.371094 c 0.066406 -4.78125 -2.488281 -9.214844 -6.660157 -11.558594 l -72.144531 -40.5 c -4.347656 -2.445312 -9.667969 -2.394531 -13.972656 0.125 c -4.308594 2.519531 -6.953125 7.136719 -6.953125 12.125 z m 0 0"/>
    </clipPath>
    <radialGradient id="p" cx="-6.928014" cy="225.544235" gradientTransform="matrix(0.26087 -0.0869565 0.0824944 0.247483 31.20118 39.5793)" gradientUnits="userSpaceOnUse" r="92">
        <stop offset="0" stop-color="#1d71d4"/>
        <stop offset="1" stop-color="#1a5fb4"/>
    </radialGradient>
    <clipPath id="q">
        <path d="m 20 9 h 100 v 106 h -100 z m 0 0"/>
    </clipPath>
    <clipPath id="r">
        <path d="m 20 24 v 76 c 0 5.074219 2.65625 9.78125 7 12.402344 c 4.34375 2.625 9.746094 2.785156 14.238281 0.417968 l 71.523438 -37.640624 c 4.230469 -2.230469 6.90625 -6.589844 6.96875 -11.371094 c 0.066406 -4.78125 -2.488281 -9.214844 -6.660157 -11.558594 l -72.144531 -40.5 c -4.347656 -2.445312 -9.667969 -2.394531 -13.972656 0.125 c -4.308594 2.519531 -6.953125 7.136719 -6.953125 12.125 z m 0 0"/>
    </clipPath>
    <clipPath id="s">
        <path d="m 20 40 h 100 v 48 h -100 z m 0 0"/>
    </clipPath>
    <clipPath id="t">
        <path d="m 20 24 v 76 c 0 5.074219 2.65625 9.78125 7 12.402344 c 4.34375 2.625 9.746094 2.785156 14.238281 0.417968 l 71.523438 -37.640624 c 4.230469 -2.230469 6.90625 -6.589844 6.96875 -11.371094 c 0.066406 -4.78125 -2.488281 -9.214844 -6.660157 -11.558594 l -72.144531 -40.5 c -4.347656 -2.445312 -9.667969 -2.394531 -13.972656 0.125 c -4.308594 2.519531 -6.953125 7.136719 -6.953125 12.125 z m 0 0"/>
    </clipPath>
    <clipPath id="u">
        <path d="m 20 56 h 92 v 48 h -92 z m 0 0"/>
    </clipPath>
    <clipPath id="v">
        <path d="m 20 24 v 76 c 0 5.074219 2.65625 9.78125 7 12.402344 c 4.34375 2.625 9.746094 2.785156 14.238281 0.417968 l 71.523438 -37.640624 c 4.230469 -2.230469 6.90625 -6.589844 6.96875 -11.371094 c 0.066406 -4.78125 -2.488281 -9.214844 -6.660157 -11.558594 l -72.144531 -40.5 c -4.347656 -2.445312 -9.667969 -2.394531 -13.972656 0.125 c -4.308594 2.519531 -6.953125 7.136719 -6.953125 12.125 z m 0 0"/>
    </clipPath>
    <clipPath id="w">
        <path d="m 20 64 h 100 v 48 h -100 z m 0 0"/>
    </clipPath>
    <clipPath id="x">
        <path d="m 20 24 v 76 c 0 5.074219 2.65625 9.78125 7 12.402344 c 4.34375 2.625 9.746094 2.785156 14.238281 0.417968 l 71.523438 -37.640624 c 4.230469 -2.230469 6.90625 -6.589844 6.96875 -11.371094 c 0.066406 -4.78125 -2.488281 -9.214844 -6.660157 -11.558594 l -72.144531 -40.5 c -4.347656 -2.445312 -9.667969 -2.394531 -13.972656 0.125 c -4.308594 2.519531 -6.953125 7.136719 -6.953125 12.125 z m 0 0"/>
    </clipPath>
    <clipPath id="y">
        <path d="m 20 80 h 100 v 35 h -100 z m 0 0"/>
    </clipPath>
    <clipPath id="z">
        <path d="m 20 24 v 76 c 0 5.074219 2.65625 9.78125 7 12.402344 c 4.34375 2.625 9.746094 2.785156 14.238281 0.417968 l 71.523438 -37.640624 c 4.230469 -2.230469 6.90625 -6.589844 6.96875 -11.371094 c 0.066406 -4.78125 -2.488281 -9.214844 -6.660157 -11.558594 l -72.144531 -40.5 c -4.347656 -2.445312 -9.667969 -2.394531 -13.972656 0.125 c -4.308594 2.519531 -6.953125 7.136719 -6.953125 12.125 z m 0 0"/>
    </clipPath>
    <clipPath id="A">
        <rect height="128" width="128"/>
    </clipPath>
    <clipPath id="B">
        <rect height="128" width="128"/>
    </clipPath>
    <mask id="C">
        <g filter="url(#a)">
            <g clip-path="url(#B)" filter="url(#a)">
                <g clip-path="url(#A)">
                    <path d="m 20.15625 30.601562 v 70.105469 c 0 5.769531 3.019531 11.117188 7.957031 14.097657 c 4.941407 2.976562 11.078125 3.152343 16.183594 0.460937 l 67.777344 -35.75 c 4.195312 -2.214844 6.832031 -6.554687 6.867187 -11.296875 c 0.03125 -4.746094 -2.546875 -9.121094 -6.710937 -11.394531 l -71.003907 -38.730469 c -4.414062 -2.40625 -9.773437 -2.308594 -14.097656 0.257812 c -4.324218 2.566407 -6.972656 7.222657 -6.972656 12.25 z m 0 0" fill="url(#b)"/>
                    <path d="m 24 29.355469 v 70 c 0 5.070312 2.65625 9.773437 7 12.394531 s 9.742188 2.777344 14.230469 0.410156 l 67.539062 -35.613281 c 4.195313 -2.210937 6.835938 -6.550781 6.867188 -11.292969 c 0.035156 -4.746094 -2.542969 -9.121094 -6.707031 -11.394531 l -67.859376 -37.011719 c -4.414062 -2.410156 -9.773437 -2.3125 -14.097656 0.253906 c -4.324218 2.566407 -6.972656 7.222657 -6.972656 12.253907 z m 0 0" fill="#76b2fa" fill-opacity="0.439216"/>
                    <g clip-path="url(#q)">
                        <g clip-path="url(#r)">
                            <path d="m 18 -2 h 117.0625 c 3.3125 0 6 2.6875 6 6 v 106 c 0 3.3125 -2.6875 6 -6 6 h -117.0625 c -3.3125 0 -6 -2.6875 -6 -6 v -106 c 0 -3.3125 2.6875 -6 6 -6 z m 0 0" fill="#99c1f1"/>
                        </g>
                    </g>
                    <g clip-path="url(#s)">
                        <g clip-path="url(#t)">
                            <path d="m 0 48 s 36.601562 16.78125 56 16 c 22.765625 -0.917969 41.214844 -24 64 -24 s 64 24 64 24 v 24 h -184 z m 0 0" fill="url(#g)"/>
                        </g>
                    </g>
                    <g clip-path="url(#u)">
                        <g clip-path="url(#v)">
                            <path d="m -72 64 s 36.601562 16.78125 56 16 c 22.765625 -0.917969 41.214844 -24 64 -24 s 64 24 64 24 v 24 h -184 z m 0 0" fill="url(#j)"/>
                        </g>
                    </g>
                    <g clip-path="url(#w)">
                        <g clip-path="url(#x)">
                            <path d="m -24 72 s 36.601562 16.78125 56 16 c 22.765625 -0.917969 41.214844 -24 64 -24 s 64 24 64 24 v 24 h -184 z m 0 0" fill="url(#m)"/>
                        </g>
                    </g>
                    <g clip-path="url(#y)">
                        <g clip-path="url(#z)">
                            <path d="m -40 88 s 36.601562 16.78125 56 16 c 22.765625 -0.917969 41.214844 -24 64 -24 s 64 24 64 24 v 24 h -184 z m 0 0" fill="url(#p)"/>
                        </g>
                    </g>
                </g>
            </g>
        </g>
    </mask>
    <mask id="D">
        <g filter="url(#a)">
            <rect fill-opacity="0.8" height="184.32" width="184.32" x="-28.16" y="-28.16"/>
        </g>
    </mask>
    <linearGradient id="E" gradientTransform="matrix(0 0.37 -0.98462 0 295.38501 -30.360001)" gradientUnits="userSpaceOnUse" x1="300" x2="428" y1="235" y2="235">
        <stop offset="0" stop-color="#f9f06b"/>
        <stop offset="1" stop-color="#f5c211"/>
    </linearGradient>
    <clipPath id="F">
        <rect height="128" width="128"/>
    </clipPath>
    <clipPath id="G">
        <rect height="128" width="128"/>
    </clipPath>
    <path d="m 20.15625 30.601562 v 70.105469 c 0 5.769531 3.019531 11.117188 7.957031 14.097657 c 4.941407 2.976562 11.078125 3.152343 16.183594 0.460937 l 67.777344 -35.75 c 4.195312 -2.214844 6.832031 -6.554687 6.867187 -11.296875 c 0.03125 -4.746094 -2.546875 -9.121094 -6.710937 -11.394531 l -71.003907 -38.730469 c -4.414062 -2.40625 -9.773437 -2.308594 -14.097656 0.257812 c -4.324218 2.566407 -6.972656 7.222657 -6.972656 12.25 z m 0 0" fill="url(#b)"/>
    <path d="m 24 29.355469 v 70 c 0 5.070312 2.65625 9.773437 7 12.394531 s 9.742188 2.777344 14.230469 0.410156 l 67.539062 -35.613281 c 4.195313 -2.210937 6.835938 -6.550781 6.867188 -11.292969 c 0.035156 -4.746094 -2.542969 -9.121094 -6.707031 -11.394531 l -67.859376 -37.011719 c -4.414062 -2.410156 -9.773437 -2.3125 -14.097656 0.253906 c -4.324218 2.566407 -6.972656 7.222657 -6.972656 12.253907 z m 0 0" fill="#76b2fa" fill-opacity="0.439216"/>
    <g clip-path="url(#c)">
        <g clip-path="url(#d)">
            <path d="m 18 -2 h 117.0625 c 3.3125 0 6 2.6875 6 6 v 106 c 0 3.3125 -2.6875 6 -6 6 h -117.0625 c -3.3125 0 -6 -2.6875 -6 -6 v -106 c 0 -3.3125 2.6875 -6 6 -6 z m 0 0" fill="#99c1f1"/>
        </g>
    </g>
    <g clip-path="url(#e)">
        <g clip-path="url(#f)">
            <path d="m 0 48 s 36.601562 16.78125 56 16 c 22.765625 -0.917969 41.214844 -24 64 -24 s 64 24 64 24 v 24 h -184 z m 0 0" fill="url(#g)"/>
        </g>
    </g>
    <g clip-path="url(#h)">
        <g clip-path="url(#i)">
            <path d="m -72 64 s 36.601562 16.78125 56 16 c 22.765625 -0.917969 41.214844 -24 64 -24 s 64 24 64 24 v 24 h -184 z m 0 0" fill="url(#j)"/>
        </g>
    </g>
    <g clip-path="url(#k)">
        <g clip-path="url(#l)">
            <path d="m -24 72 s 36.601562 16.78125 56 16 c 22.765625 -0.917969 41.214844 -24 64 -24 s 64 24 64 24 v 24 h -184 z m 0 0" fill="url(#m)"/>
        </g>
    </g>
    <g clip-path="url(#n)">
        <g clip-path="url(#o)">
            <path d="m -40 88 s 36.601562 16.78125 56 16 c 22.765625 -0.917969 41.214844 -24 64 -24 s 64 24 64 24 v 24 h -184 z m 0 0" fill="url(#p)"/>
        </g>
    </g>
    <g mask="url(#C)">
        <g clip-path="url(#G)">
            <g mask="url(#D)">
                <g clip-path="url(#F)">
                    <path d="m 128 80.640625 v 47.359375 h -128 v -47.359375 z m 0 0" fill="url(#E)"/>
                    <path d="m 13.308594 80.640625 l 47.355468 47.359375 h 21.214844 l -47.359375 -47.359375 z m 42.421875 0 l 47.363281 47.359375 h 21.214844 l -47.363282 -47.359375 z m 42.429687 0 l 29.839844 29.839844 v -21.210938 l -8.628906 -8.628906 z m -98.160156 7.90625 v 21.214844 l 18.238281 18.238281 h 21.214844 z m 0 0"/>
                </g>
            </g>
        </g>
    </g>
</svg>
