<?xml version="1.0" encoding="UTF-8"?>
<svg height="128px" viewBox="0 0 128 128" width="128px" xmlns="http://www.w3.org/2000/svg" xmlns:xlink="http://www.w3.org/1999/xlink">
    <linearGradient id="a" gradientUnits="userSpaceOnUse" x1="20.155499" x2="120.957417" y1="112.547684" y2="112.547684">
        <stop offset="0" stop-color="#0d3a6e"/>
        <stop offset="0.104009" stop-color="#3584e4"/>
        <stop offset="0.230297" stop-color="#0e315a"/>
        <stop offset="0.85841" stop-color="#174f96"/>
        <stop offset="0.935102" stop-color="#4676ab"/>
        <stop offset="1" stop-color="#050f1d"/>
    </linearGradient>
    <clipPath id="b">
        <path d="m 20 9 h 100 v 106 h -100 z m 0 0"/>
    </clipPath>
    <clipPath id="c">
        <path d="m 20 24 v 76 c 0 5.074219 2.65625 9.78125 7 12.402344 c 4.34375 2.625 9.746094 2.785156 14.238281 0.417968 l 71.523438 -37.640624 c 4.230469 -2.230469 6.90625 -6.589844 6.96875 -11.371094 c 0.066406 -4.78125 -2.488281 -9.214844 -6.660157 -11.558594 l -72.144531 -40.5 c -4.347656 -2.445312 -9.667969 -2.394531 -13.972656 0.125 c -4.308594 2.519531 -6.953125 7.136719 -6.953125 12.125 z m 0 0"/>
    </clipPath>
    <clipPath id="d">
        <path d="m 20 40 h 100 v 48 h -100 z m 0 0"/>
    </clipPath>
    <clipPath id="e">
        <path d="m 20 24 v 76 c 0 5.074219 2.65625 9.78125 7 12.402344 c 4.34375 2.625 9.746094 2.785156 14.238281 0.417968 l 71.523438 -37.640624 c 4.230469 -2.230469 6.90625 -6.589844 6.96875 -11.371094 c 0.066406 -4.78125 -2.488281 -9.214844 -6.660157 -11.558594 l -72.144531 -40.5 c -4.347656 -2.445312 -9.667969 -2.394531 -13.972656 0.125 c -4.308594 2.519531 -6.953125 7.136719 -6.953125 12.125 z m 0 0"/>
    </clipPath>
    <radialGradient id="f" cx="101.245537" cy="193.876114" gradientTransform="matrix(0.608696 -0.173913 0.0716663 0.250832 20.477898 16.977509)" gradientUnits="userSpaceOnUse" r="92">
        <stop offset="0" stop-color="#89b2ea"/>
        <stop offset="1" stop-color="#62a0ea"/>
    </radialGradient>
    <clipPath id="g">
        <path d="m 20 56 h 92 v 48 h -92 z m 0 0"/>
    </clipPath>
    <clipPath id="h">
        <path d="m 20 24 v 76 c 0 5.074219 2.65625 9.78125 7 12.402344 c 4.34375 2.625 9.746094 2.785156 14.238281 0.417968 l 71.523438 -37.640624 c 4.230469 -2.230469 6.90625 -6.589844 6.96875 -11.371094 c 0.066406 -4.78125 -2.488281 -9.214844 -6.660157 -11.558594 l -72.144531 -40.5 c -4.347656 -2.445312 -9.667969 -2.394531 -13.972656 0.125 c -4.308594 2.519531 -6.953125 7.136719 -6.953125 12.125 z m 0 0"/>
    </clipPath>
    <radialGradient id="i" cx="-12.594324" cy="246.541183" gradientTransform="matrix(0.518664 0.103733 -0.0869565 0.434783 59.970593 -33.885376)" gradientUnits="userSpaceOnUse" r="92">
        <stop offset="0" stop-color="#689bd8"/>
        <stop offset="1" stop-color="#1c71d8"/>
    </radialGradient>
    <clipPath id="j">
        <path d="m 20 64 h 100 v 48 h -100 z m 0 0"/>
    </clipPath>
    <clipPath id="k">
        <path d="m 20 24 v 76 c 0 5.074219 2.65625 9.78125 7 12.402344 c 4.34375 2.625 9.746094 2.785156 14.238281 0.417968 l 71.523438 -37.640624 c 4.230469 -2.230469 6.90625 -6.589844 6.96875 -11.371094 c 0.066406 -4.78125 -2.488281 -9.214844 -6.660157 -11.558594 l -72.144531 -40.5 c -4.347656 -2.445312 -9.667969 -2.394531 -13.972656 0.125 c -4.308594 2.519531 -6.953125 7.136719 -6.953125 12.125 z m 0 0"/>
    </clipPath>
    <radialGradient id="l" cx="86.000267" cy="198.666672" gradientTransform="matrix(0.00000002 0.347826 -0.26087 0.00000001 147.826085 42.086853)" gradientUnits="userSpaceOnUse" r="92">
        <stop offset="0" stop-color="#3d8ff0"/>
        <stop offset="1" stop-color="#1c71d8"/>
    </radialGradient>
    <clipPath id="m">
        <path d="m 20 80 h 100 v 35 h -100 z m 0 0"/>
    </clipPath>
    <clipPath id="n">
        <path d="m 20 24 v 76 c 0 5.074219 2.65625 9.78125 7 12.402344 c 4.34375 2.625 9.746094 2.785156 14.238281 0.417968 l 71.523438 -37.640624 c 4.230469 -2.230469 6.90625 -6.589844 6.96875 -11.371094 c 0.066406 -4.78125 -2.488281 -9.214844 -6.660157 -11.558594 l -72.144531 -40.5 c -4.347656 -2.445312 -9.667969 -2.394531 -13.972656 0.125 c -4.308594 2.519531 -6.953125 7.136719 -6.953125 12.125 z m 0 0"/>
    </clipPath>
    <radialGradient id="o" cx="-6.928014" cy="225.544235" gradientTransform="matrix(0.26087 -0.0869565 0.0824944 0.247483 31.20118 39.5793)" gradientUnits="userSpaceOnUse" r="92">
        <stop offset="0" stop-color="#1d71d4"/>
        <stop offset="1" stop-color="#1a5fb4"/>
    </radialGradient>
    <path d="m 20.15625 30.601562 v 70.105469 c 0 5.769531 3.019531 11.117188 7.957031 14.097657 c 4.941407 2.976562 11.078125 3.152343 16.183594 0.460937 l 67.777344 -35.75 c 4.195312 -2.214844 6.832031 -6.554687 6.867187 -11.296875 c 0.03125 -4.746094 -2.546875 -9.121094 -6.710937 -11.394531 l -71.003907 -38.730469 c -4.414062 -2.40625 -9.773437 -2.308594 -14.097656 0.257812 c -4.324218 2.566407 -6.972656 7.222657 -6.972656 12.25 z m 0 0" fill="url(#a)"/>
    <path d="m 24 29.355469 v 70 c 0 5.070312 2.65625 9.773437 7 12.394531 s 9.742188 2.777344 14.230469 0.410156 l 67.539062 -35.613281 c 4.195313 -2.210937 6.835938 -6.550781 6.867188 -11.292969 c 0.035156 -4.746094 -2.542969 -9.121094 -6.707031 -11.394531 l -67.859376 -37.011719 c -4.414062 -2.410156 -9.773437 -2.3125 -14.097656 0.253906 c -4.324218 2.566407 -6.972656 7.222657 -6.972656 12.253907 z m 0 0" fill="#76b2fa" fill-opacity="0.439216"/>
    <g clip-path="url(#b)">
        <g clip-path="url(#c)">
            <path d="m 18 -2 h 117.0625 c 3.3125 0 6 2.6875 6 6 v 106 c 0 3.3125 -2.6875 6 -6 6 h -117.0625 c -3.3125 0 -6 -2.6875 -6 -6 v -106 c 0 -3.3125 2.6875 -6 6 -6 z m 0 0" fill="#99c1f1"/>
        </g>
    </g>
    <g clip-path="url(#d)">
        <g clip-path="url(#e)">
            <path d="m 0 48 s 36.601562 16.78125 56 16 c 22.765625 -0.917969 41.214844 -24 64 -24 s 64 24 64 24 v 24 h -184 z m 0 0" fill="url(#f)"/>
        </g>
    </g>
    <g clip-path="url(#g)">
        <g clip-path="url(#h)">
            <path d="m -72 64 s 36.601562 16.78125 56 16 c 22.765625 -0.917969 41.214844 -24 64 -24 s 64 24 64 24 v 24 h -184 z m 0 0" fill="url(#i)"/>
        </g>
    </g>
    <g clip-path="url(#j)">
        <g clip-path="url(#k)">
            <path d="m -24 72 s 36.601562 16.78125 56 16 c 22.765625 -0.917969 41.214844 -24 64 -24 s 64 24 64 24 v 24 h -184 z m 0 0" fill="url(#l)"/>
        </g>
    </g>
    <g clip-path="url(#m)">
        <g clip-path="url(#n)">
            <path d="m -40 88 s 36.601562 16.78125 56 16 c 22.765625 -0.917969 41.214844 -24 64 -24 s 64 24 64 24 v 24 h -184 z m 0 0" fill="url(#o)"/>
        </g>
    </g>
</svg>
